<svg width="98" height="65" viewBox="0 0 98 65" fill="none" xmlns="http://www.w3.org/2000/svg">
<circle cx="50.5" cy="42.5" r="15.5" stroke="black" stroke-width="2"/>
<circle cx="50.5" cy="38.5" r="6.5" stroke="black" stroke-width="2"/>
<mask id="path-3-inside-1_40_51" fill="white">
<path d="M61 54.5C61 51.7152 59.8938 49.0445 57.9246 47.0754C55.9555 45.1062 53.2848 44 50.5 44C47.7152 44 45.0445 45.1062 43.0754 47.0754C41.1062 49.0445 40 51.7152 40 54.5L41.9191 54.5C41.9191 52.2242 42.8232 50.0416 44.4324 48.4324C46.0416 46.8232 48.2242 45.9191 50.5 45.9191C52.7758 45.9191 54.9584 46.8232 56.5676 48.4324C58.1768 50.0416 59.0809 52.2242 59.0809 54.5H61Z"/>
</mask>
<path d="M61 54.5C61 51.7152 59.8938 49.0445 57.9246 47.0754C55.9555 45.1062 53.2848 44 50.5 44C47.7152 44 45.0445 45.1062 43.0754 47.0754C41.1062 49.0445 40 51.7152 40 54.5L41.9191 54.5C41.9191 52.2242 42.8232 50.0416 44.4324 48.4324C46.0416 46.8232 48.2242 45.9191 50.5 45.9191C52.7758 45.9191 54.9584 46.8232 56.5676 48.4324C58.1768 50.0416 59.0809 52.2242 59.0809 54.5H61Z" fill="#D9D9D9" stroke="black" stroke-width="2" mask="url(#path-3-inside-1_40_51)"/>
<circle cx="23.5" cy="20.5" r="15.5" stroke="black" stroke-width="2"/>
<circle cx="23.5" cy="16.5" r="6.5" stroke="black" stroke-width="2"/>
<mask id="path-6-inside-2_40_51" fill="white">
<path d="M34 32.5C34 29.7152 32.8938 27.0445 30.9246 25.0754C28.9555 23.1062 26.2848 22 23.5 22C20.7152 22 18.0445 23.1062 16.0754 25.0754C14.1062 27.0445 13 29.7152 13 32.5L14.9191 32.5C14.9191 30.2242 15.8232 28.0416 17.4324 26.4324C19.0416 24.8232 21.2242 23.9191 23.5 23.9191C25.7758 23.9191 27.9584 24.8232 29.5676 26.4324C31.1768 28.0416 32.0809 30.2242 32.0809 32.5H34Z"/>
</mask>
<path d="M34 32.5C34 29.7152 32.8938 27.0445 30.9246 25.0754C28.9555 23.1062 26.2848 22 23.5 22C20.7152 22 18.0445 23.1062 16.0754 25.0754C14.1062 27.0445 13 29.7152 13 32.5L14.9191 32.5C14.9191 30.2242 15.8232 28.0416 17.4324 26.4324C19.0416 24.8232 21.2242 23.9191 23.5 23.9191C25.7758 23.9191 27.9584 24.8232 29.5676 26.4324C31.1768 28.0416 32.0809 30.2242 32.0809 32.5H34Z" fill="#D9D9D9" stroke="black" stroke-width="2" mask="url(#path-6-inside-2_40_51)"/>
<circle cx="76.5" cy="20.5" r="15.5" stroke="black" stroke-width="2"/>
<circle cx="76.5" cy="16.5" r="6.5" stroke="black" stroke-width="2"/>
<mask id="path-9-inside-3_40_51" fill="white">
<path d="M87 32.5C87 29.7152 85.8938 27.0445 83.9246 25.0754C81.9555 23.1062 79.2848 22 76.5 22C73.7152 22 71.0445 23.1062 69.0754 25.0754C67.1062 27.0445 66 29.7152 66 32.5L67.9191 32.5C67.9191 30.2242 68.8232 28.0416 70.4324 26.4324C72.0416 24.8232 74.2242 23.9191 76.5 23.9191C78.7758 23.9191 80.9584 24.8232 82.5676 26.4324C84.1768 28.0416 85.0809 30.2242 85.0809 32.5H87Z"/>
</mask>
<path d="M87 32.5C87 29.7152 85.8938 27.0445 83.9246 25.0754C81.9555 23.1062 79.2848 22 76.5 22C73.7152 22 71.0445 23.1062 69.0754 25.0754C67.1062 27.0445 66 29.7152 66 32.5L67.9191 32.5C67.9191 30.2242 68.8232 28.0416 70.4324 26.4324C72.0416 24.8232 74.2242 23.9191 76.5 23.9191C78.7758 23.9191 80.9584 24.8232 82.5676 26.4324C84.1768 28.0416 85.0809 30.2242 85.0809 32.5H87Z" fill="#D9D9D9" stroke="black" stroke-width="2" mask="url(#path-9-inside-3_40_51)"/>
<line x1="39" y1="19" x2="61" y2="19" stroke="black" stroke-width="2"/>
<line x1="29.7614" y1="35.3517" x2="34.9477" y2="41.4429" stroke="black" stroke-width="2"/>
<line x1="70.8521" y1="35.6349" x2="65.7725" y2="41.8154" stroke="black" stroke-width="2"/>
<circle cx="94" cy="4" r="3" stroke="black" stroke-width="2"/>
<circle cx="4" cy="7" r="3" stroke="black" stroke-width="2"/>
<circle cx="86.8486" cy="42.0015" r="3" transform="rotate(-166.005 86.8486 42.0015)" stroke="black" stroke-width="2"/>
<circle cx="66.8486" cy="60.0015" r="3" transform="rotate(-166.005 66.8486 60.0015)" stroke="black" stroke-width="2"/>
<circle cx="27.8486" cy="44.0015" r="3" transform="rotate(-166.005 27.8486 44.0015)" stroke="black" stroke-width="2"/>
<line x1="91.8" y1="6.6" x2="88.8" y2="10.6" stroke="black" stroke-width="2"/>
<line x1="6.8" y1="9.4" x2="9.8" y2="13.4" stroke="black" stroke-width="2"/>
<line x1="84.7121" y1="38.9955" x2="82.7685" y2="34.3888" stroke="black" stroke-width="2"/>
<line x1="64.7121" y1="56.9955" x2="62.7685" y2="52.3888" stroke="black" stroke-width="2"/>
<line x1="25.7121" y1="40.9955" x2="23.7685" y2="36.3888" stroke="black" stroke-width="2"/>
</svg>
